<?xml version="1.0" encoding="UTF-8"?>
<svg id="Layer_2" data-name="Layer 2" xmlns="http://www.w3.org/2000/svg" viewBox="0 0 457.31 80.67">
  <defs>
    <style>
      .cls-1 {
        fill: #2d799f;
      }

      .cls-2 {
        fill: #e0e3e8;
      }

      .cls-3 {
        fill: #35a4cd;
      }

      .cls-4 {
        fill: #2c7298;
      }

      .cls-5 {
        fill: #265a7f;
      }

      .cls-6 {
        fill: #2ea1cc;
      }

      .cls-7 {
        fill: #2b6e94;
      }

      .cls-8 {
        fill: #255378;
      }

      .cls-9 {
        fill: #24567c;
      }

      .cls-10 {
        fill: #40a1c7;
      }

      .cls-11 {
        fill: #34a7d1;
      }

      .cls-12 {
        fill: #2b668b;
      }

      .cls-13 {
        fill: #1c4166;
      }

      .cls-14 {
        fill: #3dafd7;
      }

      .cls-15 {
        fill: #acc7d6;
      }

      .cls-16 {
        fill: #1e3960;
      }

      .cls-17 {
        fill: #24557b;
      }

      .cls-18 {
        fill: #23547a;
      }

      .cls-19 {
        fill: #3badd6;
      }

      .cls-20 {
        fill: #1d4369;
      }

      .cls-21 {
        fill: #33aad4;
      }

      .cls-22 {
        fill: #328fb7;
      }

      .cls-23 {
        fill: #29678d;
      }

      .cls-24 {
        fill: #46a4c9;
      }

      .cls-25 {
        fill: #20496f;
      }

      .cls-26 {
        fill: #1c4167;
      }

      .cls-27 {
        fill: #25587e;
      }

      .cls-28 {
        fill: #3da9d1;
      }

      .cls-29 {
        fill: #34abd5;
      }

      .cls-30 {
        fill: #e5ebef;
      }

      .cls-31 {
        fill: #2b7096;
      }

      .cls-32 {
        fill: #308ab0;
      }

      .cls-33 {
        fill: #285d82;
      }

      .cls-34 {
        fill: #2d7297;
      }

      .cls-35 {
        fill: #2c749a;
      }

      .cls-36 {
        fill: #c8d5df;
      }

      .cls-37 {
        fill: #3186ac;
      }

      .cls-38 {
        fill: #193e65;
      }

      .cls-39 {
        fill: #29648a;
      }

      .cls-40 {
        fill: #234f75;
      }

      .cls-41 {
        fill: #1c315a;
      }

      .cls-42 {
        fill: #192a53;
      }

      .cls-43 {
        fill: #3bb6e0;
      }

      .cls-44 {
        fill: #2b7298;
      }

      .cls-45 {
        fill: #255c82;
      }

      .cls-46 {
        fill: #356b8f;
      }

      .cls-47 {
        fill: #3497c0;
      }

      .cls-48 {
        fill: #255d83;
      }

      .cls-49 {
        fill: #2f82a8;
      }

      .cls-50 {
        fill: #1f345b;
      }

      .cls-51 {
        fill: #2e7297;
      }

      .cls-52 {
        fill: #3290b8;
      }

      .cls-53 {
        fill: #3294bb;
      }

      .cls-54 {
        fill: #f4f7f9;
      }

      .cls-55 {
        fill: #3197c0;
      }

      .cls-56 {
        fill: #33acd6;
      }

      .cls-57 {
        fill: #285479;
      }

      .cls-58 {
        fill: #19395f;
      }

      .cls-59 {
        fill: #318db5;
      }

      .cls-60 {
        fill: #1c345b;
      }

      .cls-61 {
        fill: #28678d;
      }

      .cls-62 {
        fill: #3087ae;
      }

      .cls-63 {
        fill: #244368;
      }

      .cls-64 {
        fill: #2b749b;
      }

      .cls-65 {
        fill: #276187;
      }

      .cls-66 {
        fill: #192d56;
      }

      .cls-67 {
        fill: #29688e;
      }

      .cls-68 {
        fill: #3195be;
      }

      .cls-69 {
        fill: #224d72;
      }

      .cls-70 {
        fill: #31789d;
      }

      .cls-71 {
        fill: #2eb0dd;
      }

      .cls-72 {
        fill: #c8d7e1;
      }

      .cls-73 {
        fill: #2c6c91;
      }

      .cls-74 {
        fill: #37a3cb;
      }

      .cls-75 {
        fill: #2f83a9;
      }

      .cls-76 {
        fill: #2e779c;
      }

      .cls-77 {
        fill: #3084aa;
      }

      .cls-78 {
        fill: #2b6d93;
      }

      .cls-79 {
        fill: #3289af;
      }

      .cls-80 {
        fill: #285377;
      }

      .cls-81 {
        fill: #2ca8d3;
      }

      .cls-82 {
        fill: #20486d;
      }

      .cls-83 {
        fill: #2e789e;
      }

      .cls-84 {
        fill: #eaf0f4;
      }

      .cls-85 {
        fill: #2b6f95;
      }

      .cls-86 {
        fill: #3086ad;
      }

      .cls-87 {
        fill: #3081a8;
      }

      .cls-88 {
        fill: #172851;
      }

      .cls-89 {
        fill: #2f3d63;
      }

      .cls-90 {
        fill: #368cb2;
      }

      .cls-91 {
        fill: #276288;
      }

      .cls-92 {
        fill: #265c81;
      }

      .cls-93 {
        fill: #2a6489;
      }

      .cls-94 {
        fill: #224f74;
      }

      .cls-95 {
        fill: #1f3e64;
      }

      .cls-96 {
        fill: #3085ac;
      }

      .cls-97 {
        fill: #28648a;
      }

      .cls-98 {
        fill: #3792b9;
      }

      .cls-99 {
        fill: #4299bf;
      }

      .cls-100 {
        fill: #357599;
      }

      .cls-101 {
        fill: #276287;
      }

      .cls-102 {
        fill: #3298c0;
      }

      .cls-103 {
        fill: #308bb2;
      }

      .cls-104 {
        fill: #245277;
      }

      .cls-105 {
        fill: #1c4269;
      }

      .cls-106 {
        fill: #2d79a0;
      }

      .cls-107 {
        fill: #286186;
      }

      .cls-108 {
        fill: #318bb3;
      }

      .cls-109 {
        fill: #2d7ca2;
      }

      .cls-110 {
        fill: #2a6c91;
      }

      .cls-111 {
        fill: #1e456b;
      }

      .cls-112 {
        fill: #8cc53f;
      }

      .cls-113 {
        fill: #3084ab;
      }

      .cls-114 {
        fill: #389fc7;
      }

      .cls-115 {
        fill: #337ba0;
      }

      .cls-116 {
        fill: #3293bb;
      }

      .cls-117 {
        fill: #2d7298;
      }

      .cls-118 {
        fill: #2f7fa5;
      }

      .cls-119 {
        fill: #26557a;
      }

      .cls-120 {
        fill: #1d446a;
      }

      .cls-121 {
        fill: #35aad4;
      }

      .cls-122 {
        fill: #2f9fca;
      }

      .cls-123 {
        fill: #275277;
      }

      .cls-124 {
        fill: #1c3d64;
      }

      .cls-125 {
        fill: #2e7ea4;
      }

      .cls-126 {
        fill: #c1d9e4;
      }

      .cls-127 {
        fill: #31a1cb;
      }

      .cls-128 {
        fill: #284569;
      }

      .cls-129 {
        fill: #203f65;
      }

      .cls-130 {
        fill: #dfe5eb;
      }

      .cls-131 {
        fill: #193259;
      }

      .cls-132 {
        fill: #2b5b81;
      }

      .cls-133 {
        fill: #245278;
      }

      .cls-134 {
        fill: #193d63;
      }

      .cls-135 {
        fill: #2c597d;
      }

      .cls-136 {
        fill: #1e3c62;
      }

      .cls-137 {
        fill: #d8dce3;
      }

      .cls-138 {
        fill: #3d89ad;
      }

      .cls-139 {
        fill: #224d73;
      }

      .cls-140 {
        fill: #204167;
      }

      .cls-141 {
        fill: #19325a;
      }

      .cls-142 {
        fill: #244f75;
      }

      .cls-143 {
        fill: #1d3d64;
      }

      .cls-144 {
        fill: #265f85;
      }

      .cls-145 {
        fill: #3284aa;
      }

      .cls-146 {
        fill: #e7ecf0;
      }

      .cls-147 {
        fill: #2d779d;
      }

      .cls-148 {
        fill: #1f486d;
      }

      .cls-149 {
        fill: #193d64;
      }

      .cls-150 {
        fill: #304c6f;
      }

      .cls-151 {
        fill: #3292ba;
      }

      .cls-152 {
        fill: #338db5;
      }

      .cls-153 {
        fill: #235378;
      }

      .cls-154 {
        fill: #276086;
      }

      .cls-155 {
        fill: #19375e;
      }

      .cls-156 {
        fill: #1f476d;
      }

      .cls-157 {
        fill: #1463a6;
      }

      .cls-158 {
        fill: #3592b9;
      }

      .cls-159 {
        fill: #235076;
      }

      .cls-160 {
        fill: #213d63;
      }

      .cls-161 {
        fill: #2d749a;
      }

      .cls-162 {
        fill: #fefefe;
      }

      .cls-163 {
        fill: #31add8;
      }

      .cls-164 {
        fill: #192b54;
      }

      .cls-165 {
        fill: #2d7398;
      }
    </style>
  </defs>
  <g id="Layer_1-2" data-name="Layer 1">
    <g>
      <path class="cls-112" d="M226.96,45.77c0-6.43,.02-12.87-.02-19.3,0-1.01,.28-1.28,1.27-1.24,4.35,.14,8.7-.18,13.04,.46,10.17,1.51,16.34,8.25,16.8,18.54,.18,3.99-.21,7.91-1.95,11.57-2.84,5.94-7.84,8.97-14.1,10.17-4.75,.91-9.57,.42-14.35,.53-.88,.02-.68-.59-.68-1.07,0-4.16,0-8.31,0-12.47,0-2.4,0-4.79,0-7.19Z"/>
      <path class="cls-157" d="M110.92,66.49c-2.85,0-5.57-.03-8.28,.02-.68,.01-.78-.38-.91-.84-.72-2.45-1.49-4.88-2.15-7.34-.21-.78-.56-.97-1.32-.96-4.04,.04-8.07,.05-12.11,0-.85-.01-1.17,.26-1.39,1.05-.68,2.46-1.47,4.88-2.18,7.33-.14,.47-.26,.77-.85,.76-2.75-.03-5.51-.01-8.39-.01,1.23-3.6,2.42-7.1,3.61-10.6,3.36-9.88,6.73-19.76,10.07-29.65,.26-.78,.59-1.03,1.41-1.01,2.56,.06,5.11,.03,7.67,.01,.57,0,.92,.07,1.14,.72,4.5,13.32,9.03,26.64,13.56,39.95,.05,.15,.06,.31,.12,.58Z"/>
      <path class="cls-112" d="M415.9,42.51c1.31-1.71,2.84-2.92,4.88-3.35,4.72-1.01,9.34,.87,12.1,4.94,3.65,5.39,3.32,14.23-.84,19.23-3.09,3.71-7.12,4.8-11.75,3.77-1.76-.39-3.18-1.43-4.19-2.92-.33,.09-.26,.33-.26,.5q-.06,1.82-1.85,1.82c-1.56,0-3.12-.06-4.67,.02-.98,.05-1.28-.22-1.27-1.24,.05-7.11,.02-14.22,.02-21.33s.03-14.3-.03-21.45c0-1.14,.35-1.4,1.41-1.35,1.75,.08,3.52,.07,5.27,0,.9-.04,1.15,.23,1.14,1.13-.05,6.59-.05,13.18-.06,19.77,0,.1,.05,.2,.12,.46Z"/>
      <path class="cls-157" d="M121.01,64.22c0,4.99-.05,9.98,.04,14.97,.02,1.26-.34,1.54-1.52,1.47-1.79-.1-3.6-.06-5.39-.01-.69,.02-.88-.21-.87-.88,.02-13.1,.02-26.2,0-39.31,0-.74,.29-.85,.92-.84,1.96,.03,3.92,.06,5.87-.01,.84-.03,1.04,.29,.97,1.03-.05,.51,0,1.02,0,1.53,.17,0,.28,.03,.3,0,3.35-4.86,12.14-4.15,16.11,1.01,2.83,3.69,3.47,7.89,3.01,12.35-.35,3.4-1.61,6.44-4.13,8.81-3.25,3.05-7.11,3.78-11.34,2.59-1.56-.44-2.82-1.42-3.95-2.71Z"/>
      <path class="cls-112" d="M394.75,42.37q.06-2.74,2.64-2.74c1.32,0,2.64,.06,3.96-.02,.89-.05,1.15,.2,1.14,1.12-.04,5.51-.02,11.03-.02,16.54,0,2.72-.03,5.43,.02,8.15,.01,.81-.16,1.13-1.04,1.09-1.88-.07-3.76-.06-5.63,0-.86,.03-1.14-.25-1.05-1.08,.06-.5,.01-1.02,.01-1.54-.13,.03-.23,.02-.26,.06-3.59,5.34-12.27,4.13-15.99-.52-2.9-3.63-3.69-7.79-3.26-12.28,.38-4.02,1.88-7.52,5.19-10.01,3.04-2.28,6.47-2.78,10.12-1.78,1.65,.45,2.14,.86,4.18,3Z"/>
      <path class="cls-112" d="M326.41,63.9c-.12,0-.18-.01-.19,0-3.28,5.34-12.51,4.38-16.46-.95-4.72-6.35-3.71-17.2,2.26-21.75,2.95-2.25,6.31-2.77,9.88-1.94,1.82,.42,3.27,1.45,4.27,3.02,.36-.06,.23-.3,.23-.46q.04-2.19,2.18-2.19c1.52,0,3.04,.03,4.56-.01,.69-.02,.98,.11,.98,.9-.03,8.35-.03,16.7,0,25.05,0,.75-.23,.95-.95,.93-1.88-.05-3.76-.06-5.63,0-.87,.03-1.26-.18-1.14-1.11,.07-.49,.01-1,.01-1.5Z"/>
      <path class="cls-112" d="M280.27,42.51c.05-.35,.08-.46,.08-.57q.05-2.31,2.31-2.31c1.48,0,2.96,.03,4.44-.01,.69-.02,.98,.13,.97,.91-.03,8.35-.03,16.7,0,25.05,0,.76-.25,.94-.96,.93-1.88-.04-3.76-.06-5.63,0-.89,.03-1.25-.2-1.13-1.12,.07-.49,.01-1,.01-1.8-1.44,1.93-3,3.25-5.16,3.62-4.91,.83-8.92-.67-11.82-4.78-3.86-5.46-3.48-14.37,.77-19.52,2.77-3.36,7.63-4.83,11.83-3.62,1.76,.51,3.17,1.48,4.3,3.22Z"/>
      <path class="cls-157" d="M183.31,49.25c-.11,2.56,.26,5.69-.24,8.78-.96,6-3.6,8.57-9.61,9.31-2.39,.29-4.79,.16-7.13-.48-4.06-1.1-6.27-3.9-6.84-8.55-.48-3.9-.16-7.82-.24-11.73-.04-2,.03-4-.03-5.99-.02-.81,.24-1,1.01-.98,1.92,.05,3.84,.06,5.75,0,.81-.03,.98,.25,.98,1.01-.03,4.83-.02,9.67-.01,14.5,0,.64,.03,1.28,.14,1.91,.46,2.63,1.85,3.77,4.43,3.69,2.3-.07,3.85-1.57,4.04-4.06,.12-1.51,.08-3.03,.08-4.55,0-3.8,.04-7.59-.02-11.38-.01-.92,.26-1.15,1.14-1.11,1.88,.07,3.76,.06,5.63,0,.74-.02,.95,.19,.94,.93-.04,2.72-.02,5.43-.02,8.7Z"/>
      <path class="cls-112" d="M355.9,45.87c0-6.35,0-12.71,0-19.06,0-1.81-.23-1.54,1.61-1.56,1.68-.02,3.36,.06,5.04-.03,1.07-.06,1.4,.23,1.4,1.36-.05,10.35-.03,20.7-.02,31.05,0,1.94-.24,1.65,1.63,1.66,2.52,.02,5.04,.03,7.55-.01,.76-.01,1.06,.16,1.03,.98-.06,1.76-.05,3.52,0,5.27,.02,.7-.15,.98-.92,.97-5.48-.03-10.95-.04-16.43,0-.95,0-.9-.47-.9-1.11,0-6.51,0-13.03,0-19.54Z"/>
      <path class="cls-112" d="M445.98,67.46c-2.73-.08-5.78-.74-8.23-3.15-.64-.63-.65-1,.09-1.56,1.05-.79,2.03-1.68,2.99-2.59,.49-.46,.74-.54,1.32-.02,1.66,1.49,3.6,2.18,5.85,1.56,.95-.26,1.67-.8,1.86-1.82,.19-1.01-.26-1.79-1.01-2.41-.91-.74-1.98-1.19-3.05-1.62-.89-.36-1.78-.71-2.65-1.11-4-1.89-5.69-4.8-5.11-8.78,.52-3.55,3.2-6.08,7.25-6.77,3.17-.54,6.29-.47,9.17,1.22,2.19,1.29,2.2,1.43,.6,3.33-.57,.67-1.16,1.32-1.69,2.02-.38,.51-.66,.51-1.13,.09-1.44-1.29-3.14-1.67-5.01-1.26-.94,.2-1.78,.63-2.01,1.65-.23,1.06,.18,1.97,1,2.66,.9,.75,1.98,1.19,3.07,1.57,1.58,.56,3.15,1.14,4.53,2.13,5.14,3.69,4.48,11.01-1.24,13.69-1.92,.9-3.97,1.16-6.6,1.18Z"/>
      <path class="cls-157" d="M196.13,67.46c-3.23-.06-6.25-.72-8.7-3.04-.7-.66-.8-1.09,.06-1.73,1.06-.78,2.03-1.69,2.99-2.59,.47-.44,.71-.45,1.23,.02,1.62,1.47,3.52,2.17,5.73,1.63,1-.24,1.78-.75,1.99-1.83,.22-1.11-.3-1.93-1.16-2.57-1.17-.86-2.52-1.36-3.86-1.88-1.26-.5-2.5-1.05-3.62-1.83-4.38-3.04-4.39-9.75-.02-12.79,3.95-2.76,10.94-2.55,14.43,.39,.67,.56,.88,.96,.16,1.67-.82,.81-1.54,1.74-2.23,2.66-.47,.63-.8,.75-1.46,.16-1.41-1.24-3.11-1.54-4.94-1.12-.91,.21-1.69,.64-1.92,1.59-.24,1.01,.12,1.9,.88,2.59,.9,.82,2.02,1.26,3.15,1.67,1.54,.55,3.08,1.1,4.44,2.05,2.7,1.9,3.9,4.47,3.48,7.75-.4,3.07-2.22,5.05-4.99,6.21-1.79,.75-3.69,.99-5.63,1Z"/>
      <path class="cls-112" d="M294.28,56.22c0-3.07-.03-6.15,.02-9.22,.01-.88-.19-1.17-1.12-1.15-1.97,.06-1.97,0-1.97-2.02,0-1.08,.03-2.16-.01-3.23-.03-.68,.11-.99,.9-.99,2.18,0,2.18-.05,2.18-2.29,0-1.84,.02-3.67-.01-5.51-.01-.62,.18-.83,.81-.82,2.04,.03,4.07,.04,6.11,0,.66-.01,.8,.24,.79,.84-.03,2.28,.02,4.55-.03,6.83-.02,.79,.22,1.02,1,1,.9-.02,2.07-.43,2.64,.2,.55,.6,.15,1.75,.17,2.66,.02,1.04,.35,2.32-.13,3.05-.54,.81-1.92,.27-2.92,.29-.96,.01-.73,.63-.74,1.13,0,6.07-.03,12.14,.02,18.2,0,1.01-.17,1.4-1.29,1.34-1.83-.11-3.67-.06-5.51-.01-.75,.02-.94-.23-.94-.95,.04-3.11,.02-6.23,.02-9.34Z"/>
      <path class="cls-157" d="M145.08,56.18c0-3.08-.02-6.15,.02-9.23,.01-.79-.13-1.12-1.03-1.1-2.06,.04-2.06,0-2.06-2.04,0-1.12,.03-2.24-.01-3.36-.02-.6,.14-.82,.79-.84,2.29-.07,2.29-.1,2.29-2.41,0-1.8,.02-3.6-.01-5.39-.01-.61,.15-.83,.8-.82,2.04,.04,4.08,.04,6.11,0,.63-.01,.82,.18,.81,.81-.03,2.28,.01,4.55-.03,6.83-.01,.74,.12,1.07,.96,1.03,.9-.05,2.07-.41,2.65,.16,.58,.57,.17,1.74,.18,2.65,.02,1.07,.35,2.41-.17,3.15-.51,.73-1.93,.24-2.95,.24-.91,0-.67,.6-.67,1.06-.01,5.99,0,11.99,0,17.98q0,1.6-1.55,1.6c-1.72,0-3.44-.04-5.16,.02-.77,.02-1.02-.18-1.01-.98,.05-3.12,.02-6.23,.02-9.35Z"/>
      <path class="cls-139" d="M25.6,30.73c.36-.23,.71-.5,1.1-.7,.93-.48,1.66-.18,2.06,.74,1.24,2.85,2.45,5.71,3.65,8.58,.42,1.01,.11,1.79-.84,2.32-1.81,1.01-3.62,2.01-5.43,3.02-.48-.21-.59-.65-.59-1.08-.03-4.29-.14-8.58,.05-12.87Z"/>
      <path class="cls-9" d="M35.73,39.6c-1,.39-1.68-.09-2.04-.93-1.21-2.86-2.37-5.75-3.53-8.63-.41-1.03,.02-1.85,.92-2.32,1.48-.77,2.98-1.52,4.58-2.02,.71,.05,.65,.64,.65,1.07,.06,3.87,.05,7.74,.01,11.62,0,.49-.12,.96-.6,1.23Z"/>
      <path class="cls-101" d="M39.3,24.28c.39-.3,.85-.41,1.32-.51,1.06-.22,1.82,.13,2.1,1.22,.79,3.08,1.59,6.16,2.32,9.25,.26,1.09-.15,1.97-1.29,2.37-1.31,.46-2.63,.89-3.94,1.33-.5-.53-.36-1.2-.37-1.82-.07-3.95,.13-7.9-.13-11.84Z"/>
      <path class="cls-109" d="M54.66,20.16c.55-.29,1.16-.3,1.74-.32,1.04-.03,1.76,.46,1.89,1.58,.39,3.25,.68,6.51,.74,9.78,.02,1.33-.57,1.97-1.88,2.19-.9,.15-1.81,.29-2.71,.44-.12-.21-.15-.45-.15-.69,.01-3.91-.01-7.82,.01-11.73,0-.45,.08-.87,.36-1.24Z"/>
      <path class="cls-45" d="M39.3,24.28c.73,.14,.49,.72,.49,1.15,.01,4.17,0,8.34,0,12.51-1.36,.55-2.72,1.11-4.07,1.66,.22-.35,.24-.74,.24-1.15,0-3.89,0-7.78,0-11.68,0-.38,.11-.81-.3-1.09,1.17-.59,2.36-1.1,3.64-1.41Z"/>
      <path class="cls-45" d="M35.7,12.47c.1-.06,.19-.14,.3-.18,2.69-1.12,3.09-.93,3.86,1.88,.49,1.8,.98,3.6,1.45,5.41,.34,1.29,0,2.05-1.25,2.57-1.42,.6-2.89,1.1-4.34,1.64-.4-.42-.38-.95-.38-1.46-.01-2.79,0-5.58,0-8.37,0-.52,.04-1.04,.36-1.48Z"/>
      <path class="cls-164" d="M1.88,43.19c-.02-1.51,.59-2.52,1.08-3.56,.53-1.12,1.16-2.18,1.76-3.26,.15-.28,.31-.61,.69-.57,.34,.04,.38,.39,.45,.64,.59,1.91,1.42,3.72,2.33,5.5,.39,.77,.4,1.55-.08,2.27-.97,1.46-1.9,2.95-2.64,4.55-.23,.5-.63,.89-1.04,.25-1.22-1.88-2.19-3.88-2.55-5.82Z"/>
      <path class="cls-35" d="M54.66,20.16c0,4.17,0,8.35,.02,12.52,0,.4,0,.8-.23,1.15-1.2,.25-2.4,.5-3.6,.75-.03-.16-.04,.05-.05-.11-.14-4.51-.19-9.03,.03-13.54,1.24-.43,2.53-.65,3.84-.76Z"/>
      <path class="cls-40" d="M31.41,25.71c-1.91,1.1-2.6,.89-3.27-1.12-.63-1.88-1.17-3.8-1.83-5.67-.39-1.09-.09-1.9,.82-2.47,1.27-.8,2.6-1.5,4.03-2.01,.79-.26,.76,.39,.83,.81,.12,.71,.05,1.43,.06,2.15,0,2.2,.01,4.39,0,6.59,0,.63,.04,1.3-.62,1.71Z"/>
      <path class="cls-149" d="M15.06,38.42c.25-.25,.47-.52,.74-.74,.9-.73,1.5-.64,2.11,.37,.54,.91,1.01,1.85,1.51,2.78,.28,2.65,.09,5.31,.12,7.96,0,.41-.12,.78-.37,1.11-.19,.19-.38,.4-.58,.58-1.75,1.63-1.96,1.61-3.48-.3,.17-3.92,.23-7.85-.04-11.77Z"/>
      <path class="cls-17" d="M31.41,25.71c.08-.22,.22-.45,.22-.67,.02-3.31,.01-6.61,.02-9.92,0-.36-.09-.63-.5-.68,1.44-.84,2.98-1.44,4.55-1.98,0,3.77,.02,7.55,.02,11.32-1.44,.64-2.88,1.28-4.32,1.93Z"/>
      <path class="cls-156" d="M25.6,30.73c.47,.36,.28,.88,.28,1.33,.01,3.7,0,7.41,0,11.11,0,.52-.04,1.04,.25,1.51-1.53,1.16-2.16,1.06-3.16-.51-.3-.47-.57-.95-.85-1.43,.09-2.86,.02-5.72,.03-8.57,0-.44-.02-.87,.04-1.31,1.06-.82,2.17-1.58,3.4-2.13Z"/>
      <path class="cls-77" d="M62.83,17.35c-.57,.22-1.18,.22-1.77,.18-.97-.08-1.66-.56-1.83-1.58-.42-2.52-.88-5.02-1.54-7.49-.23-.85,.22-1.29,.98-1.47,1.37-.33,2.77-.24,4.17-.23,.34,.39,.38,.87,.38,1.35,.01,2.63,.01,5.26,0,7.89,0,.48-.04,.96-.38,1.35Z"/>
      <path class="cls-23" d="M46.28,20.18c-2.1,.76-2.83,.38-3.38-1.72-.52-2-1.07-4-1.6-5.99-.36-1.33-.09-1.9,1.23-2.4,1.11-.42,2.25-.78,3.45-.91,1.26-.08,.92,.93,.86,1.49-.26,2.18-.13,4.36-.17,6.53-.01,.59,0,1.19-.01,1.78-.01,.44-.05,.88-.37,1.22Z"/>
      <path class="cls-88" d="M.2,44.36c-.06-1.23,.12-2.43,.42-3.61,.08-.3,.11-.29,.36-.01,.12,.84,.15,1.69-.01,2.53-.06,.22-.13,.45-.19,.67,.05,.36,.19,.71,.05,1.07-.18,.6-.12,1.22-.34,2.02,.18-.27,.1-.32,.11-.4,.05-.35,.14-.7,.12-1.06,.08-.41,.16-.83,.43-1.17,.32-.38,.44-.16,.54,.17,.57,1.88,1.47,3.61,2.41,5.32,.37,.67,.33,1.38,.12,2.09-.26,.88-.55,1.75-.59,2.68,.11,.3,.22,.61,.1,.93-.74,2,.14,3.86,.48,5.77,.05,.12,.08,.24,.09,.36-.03,.54-.15,.94-.79,.47C.89,57.15-.19,51.77,.03,46.1c.21-.56-.05-1.17,.17-1.74Z"/>
      <path class="cls-141" d="M11.51,39.9c-1.89,2.47-2.07,2.45-3.4-.33-.6-1.25-1.11-2.54-1.55-3.86-.26-.79-.3-1.6,.18-2.3,1.27-1.81,2.67-3.52,4.28-5.05,.55,.07,.57,.53,.58,.9,.08,3.43,.04,6.87,.04,10.3,0,.12-.08,.23-.13,.33Z"/>
      <path class="cls-66" d="M4.05,61.59v-.02c-.49-1.78-.16-3.61-.25-5.41-.02-.35,.16-.69,.48-.92,.19-.77,.35-1.54,.56-2.3,.22-.81,.63-.97,1.2-.28,.63,.76,1.24,1.53,1.86,2.3,.5,2.09,.74,4.18-.13,6.24-.43,.26-.75,.06-1.05-.23-.24-.23-.47-.48-.8-.76,.26,.24,.44,.43,.62,.62,.35,.37,.74,.68,1.1,1.05,.26,.28,.46,.59,.53,.97,.01,1.09,.28,2.2-.23,3.25-.35,.37-.62,.19-.92-.19,.34,.54,1.04,.71,1.09,1.38-.02,.45-.04,.9-.67,.87-.81-.83-1.45-1.78-1.96-2.82-.6-1.2-1.3-2.37-1.43-3.75Z"/>
      <path class="cls-4" d="M49.09,8.42c1.25-.38,2.53-.64,3.84-.72,.66,0,.64,.55,.65,.93,.08,3.02,.08,6.03,.01,9.05,0,.33-.14,.62-.34,.87-1.36,.3-2.72,.6-4.08,.9-.25-.53-.14-1.09-.14-1.64,.03-3.13-.09-6.27,.06-9.4Z"/>
      <path class="cls-55" d="M69.07,19.03c.24-.01,.48-.03,.72-.03,2.39,.03,2.88,.62,2.76,3.05-.13,2.63-.26,5.26-.57,7.88-.25,2.13-.76,2.61-2.91,2.47-.44-.45-.38-1.02-.38-1.57-.01-3.41-.01-6.82,0-10.22,0-.55-.04-1.12,.38-1.58Z"/>
      <path class="cls-110" d="M47.86,35.11c-.91-.04-1.17-.73-1.34-1.43-.72-3.01-1.43-6.02-2.11-9.04-.29-1.29,.15-2.07,1.39-2.51,.67-.24,1.35-.48,2.07-.5,1.06-.19,1.11,.64,1.13,1.26,.09,2.43,.17,4.86-.03,7.29-.11,1.27-.09,2.55-.18,3.82-.04,.55,.04,1.3-.93,1.12Z"/>
      <path class="cls-141" d="M7.44,68.15c.43-.19,.47-.56,.46-.96,.09-.08,.19-.13,.3-.06,.07-.12-.06-.1-.11-.14-.2-.21-.58-.32-.44-.74,.5-1.2,.1-2.46,.27-3.68,.08-.03,.16-.04,.24-.03,.19-.17-.1-.13-.1-.22-.19-.17-.36-.36-.52-.54-.14-.17-.26-.34-.14-.57,.57-.25,.49-.76,.49-1.23,0-1.67,0-3.35,0-5.02,.94,.92,1.85,1.86,2.81,2.75,.83,.77,1.13,1.59,.54,2.65-.23,.41-.35,.89-.52,1.33-.56,1.88-.06,3.85-.47,5.74,.1,.16,0,.42,.27,.48,.49,.84,.6,1.83,1.1,2.66,.25,.42,.48,.84,.68,1.28-.04,.47,.45,.31,.63,.53,.4,.46,1.14,.53,1.35,1.2-.01,.3,.05,.65-.44,.58-2.46-1.67-4.59-3.68-6.42-6.02Z"/>
      <path class="cls-131" d="M12.47,19.36c-.03,1.9-.07,3.47,.16,5.05,.11,.73-.35,1.38-.86,1.9-1.76,1.79-3.44,3.66-4.95,5.67-.2,.27-.41,.69-.82,.54-.35-.12-.25-.54-.28-.85-.29-2.56,.22-4.87,1.94-6.9,1.49-1.76,2.88-3.6,4.81-5.41Z"/>
      <path class="cls-148" d="M22.03,19.48c.29-.21,.56-.45,.86-.61,1.1-.58,1.58-.38,1.96,.78,.68,2.07,1.35,4.15,2.03,6.22,.43,1.32,.23,2.02-.9,2.76-1.13,.73-2.3,1.4-3.45,2.09-.43-.25-.56-.68-.57-1.12-.03-3.37-.17-6.75,.07-10.12Z"/>
      <path class="cls-38" d="M19.41,32.86c-1.47,1.35-2.1,1.23-2.87-.57-.74-1.72-1.38-3.47-1.97-5.24-.33-1.01-.16-1.83,.57-2.5,1.17-1.07,2.38-2.1,3.76-2.91,.8,.23,.63,.92,.64,1.46,.04,2.48,.02,4.95,.02,7.43,0,.78,.4,1.59-.14,2.33Z"/>
      <path class="cls-155" d="M11.51,39.9c-.34-.92-.25-1.87-.25-2.82,0-2.5,0-4.99,0-7.49,0-.42,.16-.88-.23-1.23,1.84-2,1.96-1.96,2.84,.54,.54,1.53,1.16,3.04,1.77,4.54,.6,1.48,.51,2.01-.6,3.07-1.18,1.12-2.35,2.26-3.52,3.38Z"/>
      <path class="cls-141" d="M10.75,56.72c-1.64-1.41-3.03-3.06-4.34-4.77-.6-.78-.62-1.59-.17-2.46,.7-1.35,1.46-2.66,2.34-3.89,.71-.99,1.08-1,1.81-.04,.33,.44,.6,.93,.9,1.4,.33,1.06,.07,2.13,.09,3.2,.04,1.67,.03,3.34,0,5-.01,.58,.03,1.22-.64,1.55Z"/>
      <path class="cls-134" d="M19.65,19.71c-1.53,1.21-3.05,2.43-4.6,3.61-.94,.71-1.25,.56-1.44-.6-.07-.43-.11-.87-.17-1.3-.31-2.13,.36-3.8,2.17-5.05,1.2-.83,2.22-1.91,3.49-2.67,.47-.08,.71,.26,.75,.6,.22,1.81,.49,3.63-.2,5.41Z"/>
      <path class="cls-1" d="M53.25,18.56c0-3.18,0-6.36-.02-9.54,0-.45,.18-.97-.3-1.32,2.05-.55,2.85-.15,3.31,1.81,.48,2.05,.91,4.12,1.28,6.19,.27,1.5-.2,2.18-1.67,2.49-.85,.18-1.73,.25-2.6,.37Z"/>
      <path class="cls-103" d="M62.83,17.35c0-3.53,0-7.06,0-10.59,1.2-.2,2.4-.11,3.6,.02,.28,.31,.36,.7,.37,1.1,.02,2.77,.04,5.53,0,8.3,0,.24-.05,.47-.14,.69-.33,.6-.96,.18-1.4,.41-.8,.02-1.61,.05-2.41,.07Z"/>
      <path class="cls-71" d="M80.1,8.99c2.41,.38,3.68,1.73,3.89,4.22,.14,1.66,.44,3.31,.41,4.99-.02,1.24-.48,1.6-1.64,1.27-.99-.27-1.97-.59-2.96-.89-.17-2.91-.07-5.82-.05-8.72,0-.32,.09-.63,.34-.87Z"/>
      <path class="cls-96" d="M63.07,32.64c-2.07,.2-2.54-.25-2.64-2.31-.14-2.9-.35-5.8-.51-8.71-.1-1.86,.44-2.4,2.35-2.39,.74-.28,1.03,.1,1.13,.76,.05,.31,.05,.63,.05,.95,0,3.37,0,6.75,0,10.12,0,.4,0,.8-.12,1.18-.06,.15-.15,.28-.26,.39Z"/>
      <path class="cls-105" d="M19.41,32.86c-.45-3.4-.15-6.83-.24-10.24,0-.35,.09-.73-.27-.98,.96-.84,2.01-1.55,3.13-2.15,.41,.34,.25,.81,.25,1.23,.01,2.75,.02,5.5,0,8.25,0,.6,.06,1.19,.25,1.76-1.04,.71-2.08,1.43-3.12,2.14Z"/>
      <path class="cls-58" d="M15.06,38.42c.5,.21,.52,.64,.52,1.09,0,3.19,0,6.37,0,9.56,0,.45,.02,.89-.48,1.12-1.43-1.63-2.69-3.4-3.9-5.21-.82-1.23-.76-1.89,.23-2.97,1.15-1.26,2.29-2.53,3.63-3.59Z"/>
      <path class="cls-6" d="M75.97,17.83c-1.39-.15-1.99-.68-2.09-1.97-.18-2.43-.49-4.83-1.11-7.19-.25-.96,.2-1.26,1.05-1.2,.92,.07,1.81,.25,2.69,.54,.61,.14,.81,.6,.83,1.16,.05,2.55,.05,5.1,0,7.65-.02,.9-.41,1.35-1.37,1.02Z"/>
      <path class="cls-31" d="M47.86,35.11c.55-.06,.57-.44,.58-.87,.04-3.7,.39-7.4,.24-11.11-.03-.63,.07-1.33-.8-1.51,.95-.37,1.93-.62,2.95-.7,.35,.26,.25,.65,.25,1,0,3.83,0,7.67,0,11.5,0,.41-.02,.8-.24,1.15-.98,.22-1.9,.8-2.97,.53Z"/>
      <path class="cls-78" d="M49.09,8.42c.32,.2,.31,.53,.31,.85,0,3.1,0,6.19,0,9.29,0,.33-.08,.62-.24,.91-.96,.24-1.92,.48-2.88,.72,0-2.47-.02-4.94,.01-7.42,.01-.91,.16-1.81,.22-2.72,.03-.41,.03-.82-.54-.89,1-.41,2.04-.62,3.11-.74Z"/>
      <path class="cls-81" d="M75.97,17.83c.76,.08,1.04-.23,1.03-1.02-.04-2.55-.03-5.1,0-7.65,0-.48-.09-.86-.48-1.14,1.24,.16,2.42,.54,3.59,.97,0,2.79,0,5.58,0,8.37,0,.42,.15,.89-.29,1.21-1.28-.25-2.56-.49-3.83-.74Z"/>
      <path class="cls-155" d="M10.75,56.72c.28-.46,.27-.97,.27-1.49,0-2.06,.01-4.11-.01-6.17,0-.72,.06-1.41,.28-2.1,1.3,1.6,2.6,3.2,3.89,4.81,.63,.79,.67,1.53-.05,2.34-.68,.77-1.28,1.62-1.87,2.47-1.03,1.51-1.25,1.53-2.52,.14Z"/>
      <path class="cls-151" d="M66.42,17.08c0-3.43,0-6.87,0-10.3,.97,0,1.95-.12,2.9,.18,.33,.44,.36,.95,.37,1.48,0,2.38,.02,4.77,0,7.15-.02,1.52-.13,1.63-1.62,1.61-.55,0-1.11,.14-1.64-.12Z"/>
      <path class="cls-69" d="M29.25,13.98c-.8,.43-1.58,.92-2.41,1.28-1.05,.45-1.47,.23-1.68-.88-.91-4.79-1.16-4.12,3.02-6.4,.34-.19,.72-.32,1.07-.48,.55,.06,.55,.51,.57,.88,.08,1.5,.06,3,0,4.5-.02,.46-.18,.85-.58,1.1Z"/>
      <path class="cls-151" d="M69.07,19.03c0,4.46,0,8.91,0,13.37-.72,0-1.44,0-2.16,0-.43-.45-.38-1.03-.38-1.57-.01-3.41-.01-6.83,0-10.24,0-.55-.03-1.12,.38-1.58,.72,0,1.44,0,2.16,.01Z"/>
      <path class="cls-59" d="M66.91,19.02c0,4.46,0,8.93,0,13.39-.71,.02-1.42,.04-2.14,.06-.44-.4-.4-.94-.4-1.45-.02-3.5-.02-7.01,0-10.51,0-.51-.02-1.05,.38-1.46,.72-.01,1.44-.02,2.16-.03Z"/>
      <path class="cls-27" d="M33.01,5.78c.97-.55,2-.96,3.09-1.2,.6-.13,.97,.04,1.14,.7,.26,1,.55,2,.94,2.95,.47,1.15,.01,1.87-.97,2.32-1.19,.54-2.43,.98-3.65,1.46-.56-.23-.57-.74-.58-1.21-.02-1.67-.08-3.35,.02-5.02Z"/>
      <path class="cls-102" d="M66.42,17.08q2.88,.03,2.88-2.83c0-2.43,.01-4.86,.02-7.28,1.17,.06,1.77,.73,2.04,1.82,.54,2.2,.85,4.44,1.03,6.7,.11,1.39-.39,1.88-1.79,1.87-1.79-.01-3.58-.05-5.37-.07,.35-.33,.79-.13,1.18-.2Z"/>
      <path class="cls-125" d="M60.43,5.58c-.59,.07-1.18,.19-1.77,.19-1.16,0-2.05-.39-2.46-1.63-.33-1.01-.84-1.98-1.52-2.81-.68-.83-.27-1.08,.52-1.16,1.74-.17,3.48-.22,5.23-.12,.6,1.84,.62,3.69,0,5.53Z"/>
      <path class="cls-22" d="M63.32,.11c3.47-.04,5.27,1.18,6.55,4.44,.36,.9,.02,1.33-1.18,1.21-2.03-.21-4.06-.12-6.09-.22,1.9-1.59,1.06-3.55,.72-5.43Z"/>
      <path class="cls-91" d="M43.64,8.44c-.26,.09-.52,.2-.79,.28-2.12,.6-2.46,.43-3.12-1.61-.22-.68-.38-1.4-.71-2.03-.53-1.01-.21-1.55,.8-1.87,1.25-.4,2.49-.84,3.8-1.03,.27,.22,.35,.54,.36,.86,.07,1.51,.06,3.03,0,4.54-.01,.32-.12,.62-.35,.87Z"/>
      <path class="cls-133" d="M33.01,5.78c.49,.34,.28,.86,.32,1.31,.13,1.64-.26,3.3,.23,4.93-1.44,.66-2.87,1.31-4.31,1.97,.39-2.16,.4-4.32,0-6.48,1.18-.74,2.45-1.26,3.75-1.73Z"/>
      <path class="cls-120" d="M19.65,19.71c0-1.51,0-3.02,0-4.53,0-.57-.02-1.12-.56-1.48,.91-.85,1.96-1.49,3.01-2.14,.67-.42,1.14-.51,1.18,.58,.03,.99,.21,1.99,.44,2.95,.28,1.19-.12,2.03-1.07,2.68-.99,.66-2,1.3-3,1.95Z"/>
      <path class="cls-20" d="M22.2,32.87c.43,.26,.33,.68,.33,1.07,0,2.61,0,5.23,0,7.84,0,.36,.17,.83-.4,.97-1.26-1.75-2.2-3.68-3.21-5.56-.47-.88-.36-1.75,.44-2.36,.91-.7,1.77-1.48,2.84-1.95Z"/>
      <path class="cls-32" d="M64.75,19.05c0,4.47,.02,8.95,.02,13.42,0,0,0-.01,0-.01-.57,.15-1.14,.18-1.7-.02,0-4.03,0-8.06,0-12.09,0-.58,.06-1.17-.8-1.12,.81-.29,1.64-.21,2.47-.18Z"/>
      <path class="cls-7" d="M50.37,6.83c-1.28,.29-2.57,.58-3.85,.87-.13-2.09-.45-4.19,.21-6.25,1.18-.36,2.38-.6,3.62-.66,.32,.35,.4,.79,.37,1.22-.12,1.6,.37,3.25-.35,4.81Z"/>
      <path class="cls-35" d="M50.37,6.83c0-2.01-.01-4.02-.02-6.04,1.84-.4,2.22-.27,3.11,1.29,.45,.79,.79,1.63,1.21,2.44,.47,.92,.06,1.46-.79,1.7-1.14,.32-2.31,.52-3.5,.6Z"/>
      <path class="cls-67" d="M46.74,1.45c0,1.7,0,3.4,.02,5.11,0,.4,0,.79-.24,1.14-.96,.25-1.92,.49-2.89,.74,0-2.09,0-4.17-.01-6.26,1-.39,2.05-.6,3.11-.73Z"/>
      <path class="cls-42" d="M5.17,28.73c-.2,1.56-.19,3.11-.05,4.66,.05,.6-.13,1.19-.44,1.72-1.07,1.82-2.03,3.69-2.8,5.67-.06,.15-.14,.29-.47,.25-.61-4.65,1.66-8.43,3.75-12.29Z"/>
      <path class="cls-86" d="M63.32,.11c.51,.22,.78,.54,.73,1.17-.07,.74-.08,1.51,0,2.25,.12,1.14-.07,1.98-1.44,2.02-.72,.01-1.45,.02-2.17,.04,0-1.84,0-3.69,0-5.53,.96,.02,1.92,.04,2.89,.06Z"/>
      <path class="cls-20" d="M19.16,49.9c0-2.56,.01-5.13,.01-7.69,0-.47-.02-.95,.24-1.38,.97,1.51,1.95,3,2.89,4.52,.59,.96,.46,1.78-.52,2.47-.91,.64-1.75,1.38-2.62,2.07Z"/>
      <path class="cls-152" d="M17.73,65.58c1.14,.16,1.6,.8,1.49,1.96-.06,.66,.07,1.33,.14,2,.14,1.4,0,1.51-1.39,1.06-.18-.06-.35-.16-.53-.24-.13-1.27-.04-2.53-.05-3.8,0-.36,.04-.72,.34-.98Z"/>
      <path class="cls-124" d="M41.66,76.82c-.59-.38-1.6-2.58-1.37-3.13,.32-.77,1.06-.44,1.64-.52,.16-.08,.3-.04,.4,.11,.4,.94,.26,1.92,.17,2.89-.04,.44-.21,.88-.84,.65Z"/>
      <path class="cls-87" d="M4.28,55.24c-.07,2.11-.14,4.22-.22,6.33-.87-.67-.32-1.73-.69-2.55-.06-.13-.03-.32-.02-.47,.04-.78-.34-1.45-.56-2.17,.9-.27,.59-1.13,.83-1.71,.27,.13,.29,.55,.66,.57Z"/>
      <path class="cls-143" d="M35.24,77.24c-.47,.1-.77-.16-.93-.54-.33-.8-.62-1.61-.91-2.42-.13-.38,.04-.6,.44-.65,.51-.07,1.02-.19,1.51,.1,.36,1.19,.49,2.36-.11,3.52Z"/>
      <path class="cls-5" d="M29.01,72.71c-.65,0-1.32,.12-1.93-.22,.52-.45,.64-1.03,.65-1.7,.02-.94-.16-1.9,.09-2.83,.42-.04,.83-.04,1.22,.16,.56,1.53,.6,3.06-.02,4.59Z"/>
      <path class="cls-83" d="M12.69,72.42c-.25-.04-.57,.01-.47-.42,0-1.04-.41-2.11,.24-3.09,.62,.21,1.21,.46,1.45,1.15,.09,.91,.68,1.84-.06,2.73-.48,.18-.83-.07-1.16-.37Z"/>
      <path class="cls-136" d="M64.52,75.15c-1.41,.66-1.4,.66-1.51-.86-.07-.9-.41-1.9,1-2.07,.55-.22,.73,.17,.78,.55,.1,.8,.25,1.63-.27,2.37Z"/>
      <path class="cls-165" d="M45.08,76.53c-.47,.14-.93,.29-1.43,.22-.11-1.27-.39-2.55,.23-3.78,.4-.08,.8-.15,1.2-.23,.58,1.26,.57,2.52,0,3.78Z"/>
      <path class="cls-62" d="M35.23,73.72c-.46-.03-.93-.07-1.39-.1,1.66-.26,3.33-.18,4.99-.13,.46,1.27,.78,2.54-.22,3.73-.24,0-.49,0-.73,.01-.5-.61-.25-1.34-.33-2.02-.05-.47,.12-1.07-.62-1.19-.25,0-.5-.01-.75-.03-.34,0-.66-.07-.93-.28Z"/>
      <path class="cls-76" d="M23.97,72.74c.42-.05,.82,.03,1.2,.22,.59,1.18,.47,2.37,.1,3.58-.55,.4-1.02,.33-1.4-.24-.38-1.2-.49-2.38,.09-3.56Z"/>
      <path class="cls-85" d="M29.01,72.71c0-1.53,.01-3.06,.02-4.59,.31,.02,.63,.05,.94,.07,.65,1.46,.4,2.95,.15,4.43-.16,.23-.38,.23-.61,.15-.16-.02-.33-.04-.49-.06Z"/>
      <path class="cls-111" d="M27.81,67.96c.49,1.34,.18,2.72,.2,4.09,0,.58-.59,.36-.93,.45,0,0,.01-.01,.01-.01-.56-1.52-.62-3.03,0-4.55,.24,0,.48,.02,.72,.03Z"/>
      <path class="cls-161" d="M17.97,71.31c.37-.12,.67,.07,.97,.23,1.01,1.06,.57,2.29,.39,3.48-.13,.22-.34,.26-.57,.26-.46-.08-.86-.25-1.02-.74-.09-1.09-.37-2.19,.24-3.23Z"/>
      <path class="cls-95" d="M28.3,76.79c-.92-.79-1.16-1.92-1.42-3-.19-.78,.49-.58,.94-.54,.72,.03,1.12,.42,1.04,1.12-.09,.82,.47,1.81-.55,2.42Z"/>
      <path class="cls-50" d="M20.83,71.35c-.51-.04-.63-.42-.71-.82-.23-1.1-.25-2.22-.23-3.34,0-.48,.18-.78,.73-.65,.15,.07,.32,.16,.35,.31,.32,1.51,.52,3.03-.14,4.51Z"/>
      <path class="cls-129" d="M49.67,78.94c-.37-.28-.44-.73-.6-1.11-.56-1.28-.48-1.39,.95-1.56,.84,.14,1.1,.65,.93,1.83-.11,.76-.43,1.2-1.28,.83Z"/>
      <path class="cls-60" d="M27.09,67.93c0,1.52,0,3.03,0,4.55-.57-.04-.65-.46-.75-.91-.21-.94-.2-1.9-.25-2.85-.05-.81,.31-.99,1-.78Z"/>
      <path class="cls-3" d="M38.61,77.22c.47-1.22,.13-2.49,.22-3.73,.5,.33,1.67,2.83,1.45,3.26-.36,.69-1.07,.46-1.67,.47Z"/>
      <path class="cls-21" d="M29.5,72.77c.15-.03,.3-.06,.46-.09,.2-.15,.4-.29,.63-.4,.47-.72,.16-1.53,.25-2.29,.07-.57-.15-1.19,.35-1.66,.52,.1,.5,.55,.56,.92,.13,.81,.22,1.64,.36,2.45,.16,.9-.11,1.37-1.11,1.24-.5-.07-1.03,.07-1.51-.17Z"/>
      <path class="cls-56" d="M46.04,72.73c.97,.19,.73,1.09,.97,1.69,.87,2.11,.29,1.8-1.42,2.09,.24-1.25-.19-2.58,.45-3.77Z"/>
      <path class="cls-53" d="M12.21,62.96c.24,.15,.48,.3,.72,.44,.37,1.68,.46,3.37,0,5.05-.37-.09-.71-.23-.97-.51-.15-1.37-.05-2.75-.05-4.13,0-.32,.05-.63,.31-.86Z"/>
      <path class="cls-94" d="M28.3,76.79c.48-.96,.15-1.99,.2-2.98,.02-.39-.5-.31-.68-.56,.56,.07,1.11,.14,1.67,.2,.6,1.13,.41,2.29,.16,3.46-.05,.06-.1,.11-.15,.17-.42-.02-.86,.09-1.19-.29Z"/>
      <path class="cls-140" d="M37.16,80.36c-1.1-.3-1.46-1.3-1.99-2.13-.21-.32,.17-.46,.46-.47,.51-.01,1.02,.01,1.53,.02,.53,.86,.52,1.72,0,2.57Z"/>
      <path class="cls-26" d="M15.56,69.66c-.38-.06-.75-.15-.95-.53-.17-1.17-.11-2.35-.11-3.53,0-.43,0-.87,.35-1.21,.25,.12,.5,.24,.75,.36,.51,1.64,.57,3.28-.04,4.91Z"/>
      <path class="cls-127" d="M67.62,70.78c.86-.53,1.29-.35,1.22,.72-.06,.98,.24,2.14-1.21,2.42-.55-1.05-.53-2.09,0-3.14Z"/>
      <path class="cls-121" d="M24.69,67.5c.57,.15,.66,.59,.7,1.09,.07,.9,.14,1.8,.25,2.69,.1,.77-.11,1.15-.95,.92-.53-1.57-.54-3.13,0-4.7Z"/>
      <path class="cls-147" d="M17.73,65.58c0,1.23,0,2.46,0,3.69,0,.38,.1,.81-.29,1.09-.25-.03-.52-.02-.71-.25-.15-1.27-.05-2.54-.06-3.81,0-.36,.04-.72,.34-.98,.24,.09,.48,.17,.72,.26Z"/>
      <path class="cls-97" d="M17.01,65.32c0,1.23,0,2.46,0,3.69,0,.38,.11,.81-.28,1.1-.26-.01-.51-.04-.69-.26-.05-1.61-.43-3.23,.25-4.8,.24,.09,.48,.18,.72,.27Z"/>
      <path class="cls-8" d="M41.66,76.82c.52-.08,.55-.46,.54-.87-.02-.9-.02-1.8-.03-2.69,.58-.32,1.15-.3,1.25,.43,.13,1.03,.37,2.1-.26,3.08-.5,.06-.99,.33-1.5,.05Z"/>
      <path class="cls-104" d="M16.3,65.05c0,1.23,0,2.46,0,3.69,0,.38,.13,.81-.25,1.11-.19,0-.37,0-.48-.19,.01-1.64,.03-3.28,.04-4.91,.26,.03,.51,.09,.69,.31Z"/>
      <path class="cls-33" d="M23.97,72.74c0,1.19,0,2.37,0,3.56-.07,.09-.15,.11-.25,.06-.24-.09-.48-.17-.72-.26-.56-1.17-.4-2.39-.23-3.6,.43-.06,.81,.11,1.2,.24Z"/>
      <path class="cls-153" d="M21.33,66.75c.35-.05,.65,.11,.96,.24,.56,1.58,.57,3.16,0,4.74-.26,0-.54,.14-.74-.14-.62-1.59-.31-3.23-.22-4.85Z"/>
      <path class="cls-108" d="M46.04,72.73c0,.88-.02,1.75,0,2.63,.02,.47-.06,.86-.46,1.14-.17,0-.34,.02-.51,.03,0-1.26,0-2.52,0-3.78,.32,0,.64-.01,.97-.02Z"/>
      <path class="cls-82" d="M22.77,72.5c.48,1.18,.14,2.4,.23,3.6-.56,0-.96-.25-1.22-.73,.01-1.03-.21-2.06,.04-3.09,.32,.07,.64,.15,.96,.22Z"/>
      <path class="cls-13" d="M21.33,66.75c.49,1.6,.14,3.23,.22,4.85-.24-.08-.48-.16-.72-.24-.08-1.61,.27-3.23-.21-4.82,.24,.07,.48,.14,.71,.21Z"/>
      <path class="cls-4" d="M36.92,73.69c.72-.12,1.02,.16,.98,.91-.05,.87-.01,1.75-.01,2.63-.32,0-.64,0-.96,0-.55-1.18-.54-2.36,0-3.55Z"/>
      <path class="cls-39" d="M22.29,71.73c0-1.58,0-3.16,0-4.74,.27-.03,.52,0,.73,.19,.61,1.4,.31,2.85,.2,4.28-.02,.23-.22,.42-.52,.35-.14-.02-.27-.05-.41-.07Z"/>
      <path class="cls-27" d="M17.97,71.31c0,1.12,0,2.24,0,3.35-.1,.09-.21,.14-.34,.16-.5-.03-.89-.19-.98-.75,.13-1.08-.12-2.17,.13-3.25,.51-.11,.71,.55,1.19,.49Z"/>
      <path class="cls-159" d="M35.23,73.72c.32,0,.64,0,.96,0,.56,1.17,.55,2.35,0,3.52-.32,0-.64,0-.96,0v-3.52Z"/>
      <path class="cls-49" d="M23.92,72.04c-.14-.02-.29-.04-.43-.06-.39-1.58-.39-3.15,0-4.73,.27-.04,.5,.04,.72,.19,.47,1.43,.22,2.88,.15,4.32-.01,.22-.21,.31-.44,.28Z"/>
      <path class="cls-63" d="M30.7,79.91c-.21-.17-.46-.3-.62-.51-.45-.56-1.46-1.05-1.14-1.73,.22-.46,1.3-.08,1.99,.07,.39,.77,.73,1.54-.23,2.17Z"/>
      <path class="cls-51" d="M30.2,73.47c.17,0,.33,0,.5,.01,1.36,.51,.71,1.67,.79,2.56,.08,.9-.38,1.34-1.33,1-.46-1.2-.52-2.39,.05-3.58Z"/>
      <path class="cls-41" d="M14.85,64.38c-.14,1.58,.31,3.18-.24,4.74-.93-1.42-.37-2.98-.42-4.48-.01-.31,.36-.36,.66-.26Z"/>
      <path class="cls-113" d="M30.68,72.7c-.24,0-.48-.01-.72-.02,0-1.5,0-3,0-4.5,.24,0,.48,.02,.72,.02,.4,1.5,.39,3,0,4.49Z"/>
      <path class="cls-158" d="M25.16,76.52v-3.56c.61,.01,.92,.34,.98,.93,.17,.56,.24,1.14,.28,1.72,.04,.46,.02,.97-.64,1.06-.22,0-.45,.06-.63-.15Z"/>
      <path class="cls-75" d="M30.19,77c.69,.12,1.1-.11,.97-.87-.15-.88,.43-1.9-.46-2.65,.41-.03,.83-.1,1.21,.14,.47,1.2,.57,2.41-.02,3.61-.8,.02-1.61,.12-2.39-.16,0,0,0-.1,0-.1,.24-.16,.47-.14,.7,.03Z"/>
      <path class="cls-16" d="M21.81,72.28c.32,1.03,.45,2.07-.04,3.09-.46-.6-.68-1.32-.95-2.01-.14-.36-.43-.78-.13-1.12,.31-.35,.74,0,1.12,.03Z"/>
      <path class="cls-142" d="M10.26,67.44c-.13-1.94-.54-3.9,.47-5.74,.03,.13,.06,.25,.08,.38,.43,1.72,.56,3.44-.05,5.16-.21-.04-.44-.13-.5,.2Z"/>
      <path class="cls-98" d="M19.17,75.09c-.09-1.18,.25-2.39-.23-3.55,1.01,.2,1.03,1.07,1.23,1.81,.1,.62,.42,1.22,.13,1.87-.17,.28-.43,.33-.73,.3-.22-.06-.36-.21-.4-.43Z"/>
      <path class="cls-9" d="M37.16,80.36c0-.86,0-1.72,0-2.57,.4,0,.8,0,1.2-.01,.52,.87,.52,1.73,0,2.6-.4,0-.8,0-1.2-.01Z"/>
      <path class="cls-25" d="M16.78,70.82c.33,1.12,.44,2.24-.04,3.35-.72-.05-1.01-.48-1.05-1.14,.17-.82-.23-1.72,.37-2.47,.28-.03,.51,.1,.72,.26Z"/>
      <path class="cls-159" d="M49.67,78.94c.37-.03,.97,.11,.89-.48-.1-.74,.6-1.71-.54-2.19,.31-.24,.67-.21,1.03-.22,.32-.17,.52-.05,.68,.24,.38,.69,.18,1.96-.42,2.63-.55,.11-1.1,.53-1.65,.01Z"/>
      <path class="cls-12" d="M51.32,78.93c.17-.98,.75-2-.27-2.87,.35-.26,.77-.24,1.18-.26,.8,.58,.9,1.62,.28,2.88-.39,.13-.77,.3-1.19,.25Z"/>
      <path class="cls-34" d="M65.94,71.49c.11-.19,.29-.21,.49-.21,.49-.23,.68,.11,.74,.47,.13,.81,.3,1.65-.26,2.39-.32,.15-.52,.55-.96,.48-.55-1.04-.52-2.09,0-3.14Z"/>
      <path class="cls-154" d="M43.16,76.77c0-.9-.03-1.8,.01-2.7,.04-.77-.31-.98-1-.82-.08-.03-.16-.05-.25-.08,.63-.27,1.29-.26,1.95-.2-.1,1.26,.25,2.54-.23,3.78-.16,0-.32,.01-.49,.02Z"/>
      <path class="cls-70" d="M52.51,78.68c-.14-.96,.32-1.97-.28-2.88,.29-.25,.64-.22,.98-.23,.77,.6,.86,1.64,.26,2.88-.3,.16-.61,.27-.96,.22Z"/>
      <path class="cls-37" d="M34.52,80.38c-.4,0-.8,0-1.2-.01-.51-.86-.52-1.71,0-2.57,.62-.12,.92,.29,1.19,.73,.29,.61,.52,1.23,0,1.85Z"/>
      <path class="cls-92" d="M12.45,68.91c-.13,1.03,.3,2.1-.24,3.09-.24-.4-.48-.8-.72-1.2-.19-.79-.61-1.57,0-2.36,.41-.03,.67,.26,.96,.47Z"/>
      <path class="cls-163" d="M12.92,68.45c0-1.68,0-3.37,0-5.05,.42,.12,.56,.48,.56,.83,0,1.32-.06,2.63,.12,3.94,.08,.57-.3,.56-.69,.28Z"/>
      <path class="cls-160" d="M16.06,70.56c-.1,.88,.22,1.78-.19,2.64-.8-.32-.87-1.05-.97-1.75,.09-.45-.57-.95-.09-1.28,.38-.26,.86,.14,1.25,.39Z"/>
      <path class="cls-73" d="M27.32,79.72c-.41-.04-.84,.04-1.21-.23-.44-.76-.54-1.52,.03-2.26l.95,.1c.85,.73,.72,1.54,.22,2.4Z"/>
      <path class="cls-119" d="M26.15,77.23c-.01,.75-.02,1.51-.03,2.26-.55,0-.94-.39-1.4-.61-.08-.09-.12-.21-.12-.33,.07-.53-.07-1.1,.3-1.57,.18-.09,.35-.1,.52,.02l.73,.23Z"/>
      <path class="cls-145" d="M27.32,79.72c-.06-.8,.21-1.63-.22-2.4,.74,.04,1.13,.54,1.45,1.12,.23,.49,.45,.99-.02,1.48-.41-.01-.84,.07-1.21-.19Z"/>
      <path class="cls-144" d="M36.2,77.24c0-1.17,0-2.35,0-3.52,.24,0,.48-.02,.72-.02,0,1.18,0,2.36,0,3.55h-.72Z"/>
      <path class="cls-48" d="M30.19,77c-.23-.01-.47-.02-.7-.03,0-1.17,0-2.35,0-3.52,.24,0,.48,.01,.72,.02,0,1.18-.01,2.35-.02,3.53Z"/>
      <path class="cls-65" d="M10.77,67.24c.02-1.72,.03-3.44,.05-5.16,.15,.11,.3,.21,.45,.32,.48,1.72,.6,3.43-.03,5.14-.15-.1-.31-.2-.46-.3Z"/>
      <path class="cls-115" d="M21.33,76.34c.46-.13,.62,.33,.95,.46,.41,.16,.61,.48,.71,.89,0,.51,.01,1.01-.74,.81-.51-.07-.99-.18-1.41-.51,.17-.55,.08-1.18,.49-1.66Z"/>
      <path class="cls-52" d="M40.99,80.34c-.32,0-.64,.01-.96,.02-.54-.88-.5-1.76,0-2.63,.41-.05,.83-.11,1,.42,.2,.74,.58,1.48-.05,2.2Z"/>
      <path class="cls-118" d="M12.21,62.96c0,1.3,.01,2.6,0,3.89,0,.38,.12,.8-.26,1.09-.15-.09-.3-.17-.46-.26,0-1.26,0-2.51,0-3.77,0-.42-.1-.87,.23-1.24,.16,.09,.32,.18,.48,.27Z"/>
      <path class="cls-106" d="M40.05,77.73c0,.88,0,1.75,0,2.63h-.96c-.52-.86-.51-1.73,0-2.6,.32-.01,.64-.02,.96-.03Z"/>
      <path class="cls-114" d="M13.61,72.76c.59-.85,.14-1.81,.3-2.7,.25,.56,.5,1.12,.75,1.68,.49,.38,.65,.95,.89,1.48,.17,.37,.03,.6-.4,.6-.63-.18-1.15-.52-1.54-1.05Z"/>
      <path class="cls-150" d="M24.93,77.04c-.08,.56,.2,1.16-.21,1.67-.08,.09-.18,.12-.29,.1-.55-.3-.92-.8-1.36-1.22-.12-.33-.68-.55-.25-1.01,.2,0,.4,.01,.6,.02,.53,.05,1.08,.05,1.51,.44Z"/>
      <path class="cls-116" d="M31.88,77.23c0-1.2,.01-2.4,.02-3.61,.51-.05,.51,.43,.73,.68,.04,.98,.69,1.96-.04,2.93-.24,0-.48,0-.72,0Z"/>
      <path class="cls-123" d="M64.52,75.15c0-.67,0-1.34-.02-2.01,0-.39,.07-.83-.5-.91,.36-.27,.78-.4,1.22-.47,.54,1.04,.53,2.08,0,3.12-.19,.22-.44,.26-.71,.27Z"/>
      <path class="cls-84" d="M15.1,73.65c.3,0,.44-.08,.27-.41-.25-.49-.47-1-.7-1.5,.08-.1,.16-.2,.24-.3,.32,.58,.64,1.17,.97,1.75,.16,.44,.41,.81,.87,.98,.26,.3,.61,.43,.98,.51,.07,.18-.04,.27-.17,.35-.09,.05-.18,.08-.28,.11-.2,.06-.4,.1-.6,.01-.32-.17-.62-.38-.95-.54-.28-.17-.54-.36-.68-.67-.02-.11,0-.21,.07-.3Z"/>
      <path class="cls-79" d="M66.9,74.14c0-.66,0-1.31,0-1.97,0-.38,.07-.81-.48-.89,.35-.28,.76-.42,1.2-.49,0,1.05,0,2.1,0,3.14-.2,.21-.43,.32-.73,.21Z"/>
      <path class="cls-85" d="M11.74,62.68c0,1.3,.01,2.6,0,3.9,0,.38,.13,.8-.23,1.11-.09-.05-.18-.1-.27-.15,.01-1.71,.02-3.43,.03-5.14,.16,.1,.31,.19,.47,.29Z"/>
      <path class="cls-57" d="M30.7,79.91c.47-.68,.13-1.45,.23-2.17,.32,.01,.64,.02,.96,.04,.47,.53,.39,1.16,.3,1.77-.07,.44-.24,.86-.85,.63-.26,.02-.48-.07-.64-.28Z"/>
      <path class="cls-117" d="M23.49,67.25c0,1.58,0,3.15,0,4.73-.28,.02-.56,.03-.79-.17,.6-.64,.25-1.43,.3-2.14,.06-.82,.02-1.66,.02-2.48,.16,.02,.31,.04,.47,.07Z"/>
      <path class="cls-68" d="M23.92,72.04c.61-.89,.17-1.9,.28-2.84,.06-.58,.01-1.17,.01-1.76,.16,.02,.32,.04,.48,.07,0,1.57,0,3.13,0,4.7-.27,.03-.54,.04-.77-.16Z"/>
      <path class="cls-107" d="M65.23,74.89c0-1.04,0-2.08,0-3.12,.19-.22,.44-.26,.71-.28v3.14c-.2,.17-.42,.29-.7,.27Z"/>
      <path class="cls-90" d="M53.47,78.46c-.13-.96,.29-1.96-.26-2.88,.29-.25,.63-.24,.98-.2,.54,.96,.53,1.92,0,2.87-.22,.13-.44,.27-.72,.21Z"/>
      <path class="cls-47" d="M30.68,72.7c0-1.5,0-3,0-4.49,.19-.04,.37-.03,.51,.13,0,1.15,0,2.31-.03,3.46,0,.37,.13,.85-.48,.9Z"/>
      <path class="cls-46" d="M4.05,61.59c.59,1.21,1.12,2.43,1.43,3.75-.86-.92-1.44-2.02-1.97-3.14,.63,.19,.5-.29,.55-.61Z"/>
      <path class="cls-91" d="M31.34,80.18c.71-.11,.53-.66,.55-1.11,.02-.43,0-.87,0-1.3,.24,0,.48,0,.72,.01,.52,.85,.52,1.71,0,2.56-.43,.03-.88,.12-1.27-.17Z"/>
      <path class="cls-93" d="M21.33,76.34c-.16,.56,.41,1.33-.49,1.66-.37-.05-.67-.22-.91-.5,.19-.53,.06-1.09,.2-1.62,.46,0,.83,.23,1.21,.46Z"/>
      <path class="cls-29" d="M25.61,76.59c.71-.14,.49-.71,.51-1.15,.03-.52,.01-1.03,.02-1.55,.39,.92,.78,1.85,1.17,2.78-.6,.24-1.11,.07-1.61,.1-.09,0-.13-.03-.13-.08,0-.06,.02-.09,.04-.09Z"/>
      <path class="cls-122" d="M54.19,78.25c0-.96,0-1.92,0-2.87,.24,0,.48,0,.72,0,.2,.96,.77,1.95-.23,2.82-.16,.02-.33,.03-.49,.05Z"/>
      <path class="cls-135" d="M15.1,73.91c.24,.18,.47,.35,.71,.53,.21,.38,.43,.76-.23,.92-.65-.28-1.23-.65-1.71-1.18,.29-.14,.26-.4,.26-.66,.47-.23,.7,.13,.97,.39Z"/>
      <path class="cls-44" d="M32.6,80.35c0-.85,0-1.71,0-2.56,.24,0,.48,0,.72,0,0,.86,0,1.71,0,2.57-.24,0-.48,0-.72-.01Z"/>
      <path class="cls-61" d="M39.08,77.76c0,.87,0,1.74,0,2.61-.24,0-.48,0-.72,0,0-.87,0-1.73,0-2.6,.24,0,.48-.01,.72-.02Z"/>
      <path class="cls-11" d="M32.6,77.24c.01-.98,.02-1.95,.04-2.93,.26,.65,.49,1.32,.79,1.96,.45,.97-.01,1.1-.83,.97Z"/>
      <path class="cls-111" d="M11.49,68.44c0,.79,0,1.57,0,2.36-.59-.87-1.01-1.8-.96-2.88,.5-.16,.61,.39,.96,.52Z"/>
      <path class="cls-19" d="M40.99,80.34c.02-.73,.03-1.46,.05-2.2,.22,.32,.47,.63,.64,.97,.16,.33,.68,.59,.4,1-.23,.36-.7,.26-1.09,.22Z"/>
      <path class="cls-80" d="M20.12,75.88c.22,.58,.61,1.17-.2,1.62-.17-.08-.34-.16-.51-.23-.09-.07-.15-.15-.2-.25-.1-.42-.12-.85-.15-1.28,.02-.11,.08-.2,.18-.25,.34-.03,.63,.12,.89,.31l-.02,.08Z"/>
      <path class="cls-74" d="M34.52,80.38c0-.62,0-1.23,0-1.85,.49,.55,.97,1.11,1.53,1.75-.6,.23-1.06,.17-1.52,.1Z"/>
      <path class="cls-43" d="M54.68,78.2c.46-.91,.15-1.88,.23-2.82,.62,.54,.56,1.34,.7,2.04,.12,.64-.44,.72-.93,.78Z"/>
      <path class="cls-28" d="M28.53,79.91c0-.49,.01-.98,.02-1.48,.53,.5,1.06,1,1.73,1.64-.74,.1-1.25,.08-1.75-.17Z"/>
      <path class="cls-10" d="M24.48,78.67c.08,.01,.16,.02,.24,.03,0,.06,0,.12,0,.18-.93,.57-1.66-.15-2.47-.37,.6-.08,.53-.52,.51-.94,.24-.24,.37,.02,.54,.12,.41,.31,.65,.84,1.19,.99Z"/>
      <path class="cls-100" d="M15.57,75.35c.34-.24,.22-.6,.23-.92,.48,0,.68,.41,.98,.67,.24,.12,.39,.3,.4,.58-.05,.24-.05,.53-.43,.41-.54,0-.78-.5-1.18-.73Z"/>
      <path class="cls-14" d="M20.12,75.39c.02-.68,.03-1.36,.05-2.04,.35,.69,.7,1.38,1.04,2.06-.38,.35-.74,.11-1.07,.16-.06-.04-.08-.07-.07-.12,.01-.04,.03-.07,.05-.07Z"/>
      <path class="cls-30" d="M25.61,76.59c.03,.06,.06,.12,.09,.18-.09,.08-.19,.16-.28,.24-.16,.01-.33,.02-.49,.04-.5-.15-1-.29-1.51-.44,.1-.08,.2-.16,.29-.23,.08-.02,.17-.04,.25-.06,.38,.2,.78,.26,1.2,.22,.15,.02,.3,.04,.45,.06Z"/>
      <path class="cls-24" d="M19.41,77.03c.01,.08,.02,.16,.01,.24-.73,.14-1.21-.34-1.75-.67,.03-.18,.14-.29,.29-.37,.11-.03,.21-.03,.32-.01,.46,.15,.88,.37,1.14,.82Z"/>
      <path class="cls-138" d="M17.96,76.35c-.1,.08-.2,.17-.29,.25-.34-.1-.67-.23-.91-.51,.22-.12,.26-.32,.28-.54,.55,0,.81,.31,.92,.8Z"/>
      <path class="cls-89" d="M.97,43.28c0-.84,0-1.69,.01-2.53,.21,.84,.33,1.69-.01,2.53Z"/>
      <path class="cls-2" d="M.66,45.15c.04-.4,.08-.8,.12-1.2,.12,.15,.24,.31,.37,.46-.07,.4-.14,.79-.21,1.19-.46,.07-.32-.22-.28-.46Z"/>
      <path class="cls-146" d="M23.24,77.84c-.16-.09-.33-.18-.49-.27-.16-.26-.32-.51-.48-.77,.18-.08,.36-.15,.54-.23-.15,.45,.31,.62,.43,.94,.1,.11,.1,.22,0,.32Z"/>
      <path class="cls-89" d="M.2,44.36c.02,.59,.21,1.19-.17,1.74-.04-.59-.05-1.17,.17-1.74Z"/>
      <g>
        <path class="cls-59" d="M63.07,32.44c.57,0,1.13,.01,1.7,.02-.55,.26-1.13,.19-1.7,.18,0-.07,0-.13,0-.2Z"/>
        <path class="cls-54" d="M20.12,75.39c.01,.06,.02,.12,.02,.18,0,.07,0,.15,0,.22-.32-.09-.65-.19-.97-.28,0-.2,.06-.31,.28-.19,.22,.02,.45,.04,.67,.06Z"/>
        <path class="cls-162" d="M235.06,45.87c0-4.11,.03-8.22-.02-12.33-.01-.92,.26-1.14,1.14-1.12,1.44,.04,2.87,.05,4.28,.36,4.41,.99,7.25,3.69,8.51,8.01,.94,3.25,.95,6.54,.1,9.81-1.37,5.28-5.4,8.43-10.98,8.67q-3.04,.13-3.04-2.86v-10.54Z"/>
        <path class="cls-162" d="M97.36,50.86h-10.37c1.7-5.78,3.39-11.49,5.17-17.55,1.79,6.05,3.48,11.77,5.2,17.55Z"/>
        <path class="cls-162" d="M427.51,53.16c.04,2.29-.58,4.34-2.2,6.01-2.02,2.07-5.1,2.09-7.18,.08-3.1-3-3.15-9.04-.09-12.07,2.1-2.09,5.32-2.07,7.37,.08,1.58,1.65,2.15,3.68,2.1,5.91Z"/>
        <path class="cls-162" d="M132.88,53.1c.01,2.19-.57,4.18-2.08,5.83-2.2,2.42-5.61,2.41-7.79-.01-2.63-2.92-2.72-8.3-.18-11.3,2.26-2.67,5.99-2.65,8.21,.05,1.24,1.5,1.83,3.26,1.84,5.44Z"/>
        <path class="cls-162" d="M383.01,53.14c-.04-2.24,.57-4.26,2.15-5.9,2.04-2.13,5.17-2.15,7.27-.09,3.07,3.03,3.13,8.89,.11,11.97-2.16,2.2-5.45,2.15-7.53-.14-1.5-1.65-2.05-3.65-2-5.84Z"/>
        <path class="cls-162" d="M314.64,53.09c-.03-2.2,.57-4.18,2.1-5.81,2.05-2.19,5.23-2.22,7.35-.11,3.02,3.01,3.08,8.81,.13,11.89-2.17,2.27-5.5,2.21-7.61-.12-1.34-1.48-1.98-3.38-1.96-5.86Z"/>
        <path class="cls-162" d="M268.59,53.12c-.03-2.24,.58-4.26,2.16-5.9,2.05-2.12,5.18-2.13,7.27-.06,3.06,3.04,3.11,8.9,.08,11.97-2.13,2.16-5.37,2.13-7.45-.08-1.39-1.48-2.07-3.43-2.06-5.94Z"/>
        <path class="cls-89" d="M.66,45.15c.09,.16,0,.41,.28,.46,.08,.53-.24,.96-.37,1.45-.07-.64-.27-1.29,.09-1.91Z"/>
        <path class="cls-132" d="M.8,52.34c.3,.3,.53,.63,.59,1.29-.55-.45-.56-.87-.59-1.29Z"/>
        <path class="cls-17" d="M7.66,66.25c.22,.54,.86,.67,1.37,1.35-.55-.2-.84-.3-1.12-.41-.36-.42-.72-.84-1.11-1.29,.46-.12,.57,.3,.86,.35Z"/>
        <path class="cls-18" d="M6.44,60.98c-.47-.34-.91-.69-1.07-1.46,.66,.31,1.01,.74,1.34,1.2-.03,.15-.12,.24-.26,.26Z"/>
        <path class="cls-64" d="M6.44,60.98c.09-.09,.18-.17,.26-.26,.23,.16,.47,.33,.7,.49,.09,.15,.19,.3,.28,.45-.03,.16-.12,.25-.28,.28-.42-.22-.7-.58-.97-.95Z"/>
        <path class="cls-99" d="M7.41,61.94c.09-.09,.18-.19,.28-.28,.18,.17,.35,.34,.53,.51,.05,.16,.09,.31-.02,.46-.09-.02-.18-.04-.27-.06-.17-.21-.34-.42-.52-.63Z"/>
        <path class="cls-126" d="M15.1,73.91c-.32-.13-.65-.26-.97-.39-.45-.41-1.21-.41-1.44-1.1,.31,.11,.62,.23,.92,.34,.5,.3,.99,.59,1.49,.89,0,.09,0,.17,0,.26Z"/>
        <path class="cls-137" d="M8.2,62.64c0-.15,.01-.31,.02-.46,.09,.07,.18,.16,.28,.2,.29,.12,.52,.4,.29,.6-.25,.23-.39-.2-.59-.34Z"/>
        <path class="cls-36" d="M17.46,74.9c.08-.07,.17-.14,.25-.21,.08,0,.17-.01,.25-.02,.26,.14,.52,.28,.78,.41-.04,.19-.16,.31-.34,.37-.41-.03-.85,.01-.95-.55Z"/>
        <path class="cls-130" d="M18.46,75.3c.1-.08,.19-.15,.29-.23,.14,0,.28,0,.42,.01,.09,.08,.19,.16,.28,.24-.09,.06-.18,.13-.28,.19v.1c-.33,.11-.56-.01-.71-.32Z"/>
        <path class="cls-72" d="M23.24,77.84c0-.11,0-.21,0-.32,.41,.39,.82,.77,1.23,1.16-.69,.13-.86-.51-1.24-.84Z"/>
        <path class="cls-128" d="M18.46,75.3c.24,.11,.48,.21,.73,.32,.28,.44,.23,.93,.22,1.41-.41-.24-.81-.47-1.22-.71-.32-.46-1.23-.55-.9-1.42,.06,0,.12,0,.17,0,.33,.13,.67,.27,1,.4Z"/>
        <path class="cls-15" d="M17.29,74.91c-.06,.7,.78,.83,.9,1.42-.08,0-.15,.01-.23,.02-.31-.27-.62-.53-.92-.8-.08-.15-.17-.29-.25-.44,.17-.07,.33-.13,.5-.2Z"/>
      </g>
    </g>
  </g>
</svg>